<svg xmlns="http://www.w3.org/2000/svg" width="32" height="32" viewBox="0 0 24 24"><g fill="none" stroke-linecap="round" stroke-linejoin="round" stroke-width="2"><path d="M0 0h24v24H0z"/><path fill="#e9e216" d="M17 3.34a10 10 0 1 1-14.995 8.984L2 12l.005-.324A10 10 0 0 1 17 3.34zM15 14H9l-.117.007a1 1 0 0 0 0 1.986L9 16h6l.117-.007a1 1 0 0 0 0-1.986L15 14zM9.01 9l-.127.007a1 1 0 0 0 0 1.986L9 11l.127-.007a1 1 0 0 0 0-1.986L9.01 9zm6 0l-.127.007a1 1 0 0 0 0 1.986L15 11l.127-.007a1 1 0 0 0 0-1.986L15.01 9z"/></g></svg>